<svg id="befeebec-8a41-46cf-bb41-2d6aa989d630" data-name="ChiuKongGothic" xmlns="http://www.w3.org/2000/svg" viewBox="0 0 937.29 138.08"><path d="M571.11,305.07a79.74,79.74,0,0,1-9.5,2.81v10.36h9v7.93h-9v1c1.73,1.59,8,8.43,9.29,10.08l-4.83,7.06a88.33,88.33,0,0,0-4.46-7.85v29h-8.35V338.77c-2.59,6-5.62,11.81-8.86,15.69a45,45,0,0,0-4.32-8.78c4.25-4.68,8.64-12.46,11.38-19.51h-9.65v-7.93h11.45v-8.71c-3.1.58-6.2,1-9.15,1.37a28.93,28.93,0,0,0-2.37-6.7c8.57-1.29,17.93-3.45,24-6ZM592.86,298c-.07,10.44-.07,20-.79,28.59,2.37,14.54,7.2,26.42,17.5,31.9a28.48,28.48,0,0,0-5.4,6.69c-7.42-4.61-12.17-11.88-15.34-21.24-2.88,9-7.85,16.2-16.49,21.53a25.89,25.89,0,0,0-5.62-6.34c18.94-11.08,18.08-31.39,18.15-61.13Zm-11.59,16.78c-.07,7.2-1.37,15.34-4.32,20.66l-7.42-2.95c2.59-4.25,4-12.1,4.32-18.72Zm27,.86a174.58,174.58,0,0,1-7.78,19.23l-7.2-1.95a110.39,110.39,0,0,0,6.48-19.22Z" transform="translate(-214.21 -297.79)"/><path d="M638.94,321.77V317.6h20.3c3.24,6.62,11.09,12.31,20.17,15a34.54,34.54,0,0,0-5.62,6.48c-7.71-3.09-14.55-8.06-18.87-13.82h-16a38.58,38.58,0,0,1-12.24,11.3h41.47v8H651.32v10.22h26.86v8.14H615.82v-8.14h26.36V344.53H625.91V337A40.09,40.09,0,0,1,619.5,340a41.28,41.28,0,0,0-5-6.26c8.06-2.67,15.05-7.85,17.78-13.54Zm3.38-16.34v-7.64h8.93v7.64H678V321.7H669v-8.5H624.39v8.5H615.9V305.43Z" transform="translate(-214.21 -297.79)"/><path d="M702.23,352.23a37.79,37.79,0,0,1-7.78,13.54l-8.35-3.6c3.09-2.67,6-7.49,7.63-12Zm12.38-10.44v-3.67H692.43v-6.77h22.18v-3.46h-21.1V300.24h51.13v27.65H723.25v3.46h22.4v6.77h-22.4v3.67h28.08v7.49H686.74v-7.49Zm-12.89-20.88h12.89V307.23H701.72Zm6.91-12.67a32.36,32.36,0,0,1,4,9.79l-5.76,2.09a34.74,34.74,0,0,0-3.6-10Zm5.84,43.85A69.07,69.07,0,0,1,715.91,364l-8.57,1.08a76.33,76.33,0,0,0-.94-12.24Zm14.61-.65a66.18,66.18,0,0,1,3.82,11.66l-8.71,1.95A74.44,74.44,0,0,0,721,353.1Zm-5.83-30.53h12.67V307.23H723.25Zm11.81-10.66c-1.8,3.75-3.6,7.63-5,10.23l-5.4-2.09a64,64,0,0,0,4-10.37ZM743.2,350c3.24,3.82,7.2,9.07,9,12.67l-8.64,3c-1.52-3.46-5.26-9-8.43-13Z" transform="translate(-214.21 -297.79)"/><path d="M762.56,320.62V300.1h22.75v20.52h4.4v8.21H824.2v5.76H789.71v-2.66H785.1v26.28c0,3.09-.43,5-2.38,6.05s-4.39,1.22-7.77,1.22a26.84,26.84,0,0,0-2-6.55c1.73.07,3.38.07,4,.07s.79-.29.79-.86v-5H770v12.38h-7.2V331.93h-4.32V320.62Zm20.67,8.79v-3H764.65v3h18.58Zm-4.32-20.24v-2.95H768.75v14.4h2.52V309.17Zm-1.16,29.24v-3.17H770v3.17ZM770,347.33h7.77V344H770ZM778.91,314h-3v6.62h3Zm20.23,36.94h-7V336.89h29.59v14.05h-7.06L819.3,352l-3.74,6.48H825v6.12H788.12V358.5h9.22a26,26,0,0,0-2.59-6Zm.07-47.1v-6h6v6h3.1v-6h6.12v6h8.35v22.54H791.15V303.84Zm-1.73,8.64h3v-3.16h-3Zm0,8.43h3V317.6h-3Zm1.59,25h15.41v-4H799.07Zm10,12.6a55.9,55.9,0,0,0,3-7.56H800.87a24.31,24.31,0,0,1,3.24,7.56Zm-3.89-46h3.1v-3.16h-3.1Zm0,8.43h3.1V317.6h-3.1Zm7.77-8.43h3.17v-3.16H813Zm0,8.43h3.17V317.6H813Z" transform="translate(-214.21 -297.79)"/><path d="M225.22,403.59a55.89,55.89,0,0,1-3.88,7.92v24.08h-1.66V414.1a42.81,42.81,0,0,1-4.39,5.44,10.65,10.65,0,0,0-1.08-1.59,42.56,42.56,0,0,0,9.36-14.86Zm9.87,2.34v-2.7h1.69v2.7h10.69v1.48H236.78v2.44h9v9.4h-3.49a32.87,32.87,0,0,1,5.65,4.61l-1.33.93a16.88,16.88,0,0,0-1.8-1.8v.08l-2.38.07V426h5.44v1.51h-5.44v6c0,1.19-.25,1.69-1.18,1.94a26.25,26.25,0,0,1-5.58.25,8.76,8.76,0,0,0-.61-1.54c2.52.07,4.35.07,5,0s.72-.18.72-.65v-6h-17.1V426h17.1v-2.81l-16.24.44-.17-1.55c2.84,0,6.62-.07,10.69-.15v-2.66H226.3v-9.4h8.79v-2.44H224.83v-1.48Zm-7.13,8h7.13v-2.7H228Zm0,4h7.13v-2.74H228Zm1.29,10a30,30,0,0,1,4.72,4.72l-1.33,1a29.55,29.55,0,0,0-4.68-4.9Zm7.53-14.07h7.38v-2.7h-7.38Zm0,4h7.38v-2.74h-7.38Zm4.5,1.33h-4.5v2.63l6.55-.18c-.9-.72-1.84-1.41-2.74-2Z" transform="translate(-214.21 -297.79)"/><path d="M254.82,423.5a31.32,31.32,0,0,1-2.74,9.1,8.49,8.49,0,0,0-1.48-.72,27.22,27.22,0,0,0,2.63-8.67Zm-1.66-4.32c.9-1.12,1.87-2.49,2.81-3.93a32.78,32.78,0,0,0-4.9-5.29l1-1.08,1.23,1.05a54.82,54.82,0,0,0,3.56-7l1.55.69a64.65,64.65,0,0,1-4.1,7.27,31.15,31.15,0,0,1,2.62,3c1.52-2.38,2.92-4.86,3.93-6.87l1.55.68a113.69,113.69,0,0,1-7.46,11.45l6.48-.33a40.11,40.11,0,0,0-2-3.56l1.33-.54a30.3,30.3,0,0,1,3.57,7.23l-1.44.65a20.22,20.22,0,0,0-.83-2.3l-3.46.21v15.3H257V420.58l-5.94.36-.18-1.69ZM261.8,423a29.38,29.38,0,0,1,2.37,6.55l-1.44.51a31.58,31.58,0,0,0-2.26-6.66Zm8.85-2.44c-.36,8-1.65,12.74-8,15.29a5.12,5.12,0,0,0-1.08-1.29c6-2.27,7.06-6.59,7.38-14Zm-3.52-3.35a53.29,53.29,0,0,0,3-7.53h-6.48v-1.62h8.68v-5.11h1.76v5.11h9.14v1.62H272.13l.11,0c-1,2.38-2.16,5.22-3.28,7.38l10.58-.61a44.41,44.41,0,0,0-3.27-4.07l1.37-.79a41.16,41.16,0,0,1,6.08,8.35l-1.48.86a21.17,21.17,0,0,0-1.69-2.84c-6.05.4-12.34.79-16.63,1l-.14-1.69Zm10.18,3.27v12.39c0,.82.18.93,1.08.93h3.21c.86,0,1-.57,1.11-4.57a3.85,3.85,0,0,0,1.55.72c-.14,4.39-.61,5.51-2.52,5.51h-3.53c-2,0-2.59-.51-2.59-2.59V420.47Z" transform="translate(-214.21 -297.79)"/><path d="M302.23,404.46a82.35,82.35,0,0,1-11.09,3.88v7.42h10.65v1.73H291.14v9.68h10.91v1.69H291.14v3.24h-1.73V406.4l1.19.47a59.7,59.7,0,0,0,10-3.82Zm16.19,1.08v21.63c0,1.26-.28,1.94-1.29,2.27a24.44,24.44,0,0,1-5.76.36,8.24,8.24,0,0,0-.76-1.88c2.52.08,4.65,0,5.29,0s.8-.21.8-.79V407.26H306.29v28.22h-1.76V405.54Z" transform="translate(-214.21 -297.79)"/><path d="M334.34,418V414h-7v3.45c0,5.26-.4,12.57-3.17,17.61a5.49,5.49,0,0,0-1.37-1.08c2.67-4.79,2.92-11.49,2.92-16.53V405.1h16.45V414h-6.26V418h6.3v11.23c0,.9-.15,1.4-.83,1.69a12.19,12.19,0,0,1-3.82.32,4.33,4.33,0,0,0-.61-1.55c1.66,0,2.84,0,3.24,0s.5-.14.5-.5v-9.65h-4.78v15.95h-1.55V419.61H330v12h-1.51V418Zm-7-5.73h13.14v-5.58H327.32Zm19.55-5.43V426.7h-1.62V406.87Zm7.34-3.24V433c0,1.44-.4,2-1.33,2.34a24.24,24.24,0,0,1-5.47.36,9.38,9.38,0,0,0-.69-1.9c2.27.07,4.39,0,5,0s.76-.18.76-.76V403.63Z" transform="translate(-214.21 -297.79)"/><path d="M362.06,414.17v-9.86h9.39v9.86h2.09v4.94h-1.47v-3.5H361.45v3.5H360v-4.94Zm9.43,4.36v15.23c0,.9-.22,1.4-.9,1.65a13.73,13.73,0,0,1-3.85.25,4.48,4.48,0,0,0-.58-1.4c1.55,0,2.85,0,3.21,0s.54-.14.54-.5v-4.58h-6.34v6.48H362V418.53Zm-1.51-9.9v-2.84H363.5v8.38h2.3v-5.54Zm-.07,14.44v-3.14h-6.34v3.14Zm-6.34,4.71h6.34V424.5h-6.34ZM370,410h-2.85v4.21H370Zm17.53,19.51c-.61,1.37-1.3,2.85-1.84,3.93h6.27v1.47H373.22V433.4h6a14.35,14.35,0,0,0-1.36-4l1.4-.43a14.9,14.9,0,0,1,1.48,4.14l-.83.29H385l-.72-.29a26.57,26.57,0,0,0,1.7-4.18Zm4.25-10.8v1.44h-18v-1.44Zm-12.24-12.2V403H381v3.49h3.17V403h1.44v3.49h4.64v10.08H375.09V406.47Zm9.93,15.73v6.52H375.88V422.2Zm-12.88-11.41h3.09v-3h-3.09Zm0,4.36h3.09v-3h-3.09Zm.86,12.2h10.44v-3.78H377.43ZM381,410.79h3.17v-3H381Zm0,4.36h3.17v-3H381Zm4.47-4.36h3.24v-3h-3.24Zm0,4.36h3.24v-3h-3.24Z" transform="translate(-214.21 -297.79)"/><path d="M402.59,403.34a21.34,21.34,0,0,1-1.36,2.81h10v1.47h-6.94a24.31,24.31,0,0,1,1.94,3.42l-1.51.58a23,23,0,0,0-2.23-4h-2.13a25.67,25.67,0,0,1-3.52,4.5,9.54,9.54,0,0,0-1.48-1,22.82,22.82,0,0,0,5.62-8.21Zm9.65,7.41v2.16h11.48V417h3.93v1.47h-3.93v4.4H412.24v2.66h12.53V427H412.24v2.85h14.9v1.47h-14.9v4.32h-1.73v-4.32H395.94v-1.47h14.57V427H398.28v-1.47h12.23v-2.66H399.46v-1.48h11.05v-2.92H395.4V417h15.11v-2.63H399.72v-1.48h10.79v-2.16Zm3.82-7.45a17.36,17.36,0,0,1-1.59,2.85h12.85v1.47h-9.07a15.29,15.29,0,0,1,2.31,3.24l-1.44.72a18.66,18.66,0,0,0-2.85-4h-2.88a21.81,21.81,0,0,1-4,3.82,4.72,4.72,0,0,0-1.44-1,18.42,18.42,0,0,0,6.41-7.56ZM422,414.39h-9.76V417H422Zm-9.76,4.1v2.92H422v-2.92Z" transform="translate(-214.21 -297.79)"/><path d="M436.22,417.16V406.94h-4.5v-1.69H450v1.69h-3.6v10.22h4.14v1.66h-4.14v16.84h-1.73V418.82h-6.8c-.11,6.12-1,12.13-5.37,17a4.92,4.92,0,0,0-1.33-1.11c4.07-4.61,4.9-10.23,5-15.91h-5v-1.66Zm1.69-10.22v10.22h6.77V406.94ZM464.22,424a32.61,32.61,0,0,1-14.14,11.66,9.69,9.69,0,0,0-1.3-1.36c5.65-2.27,11-6.41,13.82-10.95Zm-2.16-19.72a37.49,37.49,0,0,1-10.4,8.31,10.06,10.06,0,0,0-1.29-1.22,32.89,32.89,0,0,0,10-7.78Zm1.19,9.89a39.78,39.78,0,0,1-11.3,9,10.46,10.46,0,0,0-1.3-1.26,36,36,0,0,0,11-8.42Z" transform="translate(-214.21 -297.79)"/><path d="M480.46,409v1.54H467V409Zm-1.26,14.32v10.26h-8.89v1.8h-1.62V423.28Zm0-9.5v1.47H468.73v-1.47Zm0,4.75V420H468.73v-1.51Zm-.07-14.22v1.51H468.91v-1.51ZM470.31,432h7.31v-7.12h-7.31Zm24.15-27.82v9.28c0,.69.15.83.87.83h2.34c.72,0,.86-.47.9-4.1a5.71,5.71,0,0,0,1.58.65c-.14,4.06-.61,5.07-2.27,5.07h-2.77c-1.8,0-2.34-.5-2.34-2.41v-7.7h-7.48v2.77a10.1,10.1,0,0,1-4.68,9.11,5.74,5.74,0,0,0-1.23-1.23,8.65,8.65,0,0,0,4.25-7.92v-4.35Zm1.88,14.43.28-.07,1.12.5a22.77,22.77,0,0,1-6.41,10.69,22.89,22.89,0,0,0,8.89,4.43,8.34,8.34,0,0,0-1.18,1.51,24.37,24.37,0,0,1-9-4.78,27.22,27.22,0,0,1-9.54,4.82,7.18,7.18,0,0,0-1-1.55,25.86,25.86,0,0,0,9.22-4.5,24.16,24.16,0,0,1-5.58-8.82l1.58-.5a21.76,21.76,0,0,0,5.29,8.24,20.6,20.6,0,0,0,5.58-8.35H480.93V418.6Z" transform="translate(-214.21 -297.79)"/><path d="M517.07,409v1.54H503V409Zm-1.44,14.32v10.26h-9.28v1.8h-1.66V423.28Zm.11-9.5v1.47h-11v-1.47Zm0,4.75V420h-11v-1.51Zm0-14.22v1.51H504.91v-1.51ZM506.35,432H514v-7.12h-7.66Zm21.45-28.94v12.38h8.5v1.7h-8.5v18.53h-1.73V417.13h-9v-1.7h9V403.05Z" transform="translate(-214.21 -297.79)"/><path d="M545.23,420.11a1.86,1.86,0,0,1,1.83-2,2,2,0,1,1-1.83,2Z" transform="translate(-214.21 -297.79)"/><path d="M562.33,423.5a31,31,0,0,1-2.74,9.1,8.74,8.74,0,0,0-1.47-.72,27.48,27.48,0,0,0,2.62-8.67Zm-1.66-4.32c.9-1.12,1.87-2.49,2.81-3.93a32.78,32.78,0,0,0-4.9-5.29l1-1.08,1.22,1.05a54.82,54.82,0,0,0,3.56-7l1.55.69a63.13,63.13,0,0,1-4.1,7.27,32.84,32.84,0,0,1,2.63,3c1.51-2.38,2.91-4.86,3.92-6.87l1.55.68a115.37,115.37,0,0,1-7.45,11.45l6.47-.33a40.11,40.11,0,0,0-2-3.56l1.34-.54a30.61,30.61,0,0,1,3.56,7.23l-1.44.65a20.22,20.22,0,0,0-.83-2.3l-3.45.21v15.3h-1.59V420.58l-5.94.36-.18-1.69Zm8.64,3.81a29.44,29.44,0,0,1,2.38,6.55l-1.44.51a32.23,32.23,0,0,0-2.27-6.66Zm20.88-15.83a46,46,0,0,1-7.92,1.9v14.51h5.54V413h1.62v14.4h-1.62v-2.16h-5.54v6c0,1.23.14,2.06.61,2.31a4.66,4.66,0,0,0,1.44.18H587a7.38,7.38,0,0,0,1.77-.15,1.16,1.16,0,0,0,.86-.82,17.31,17.31,0,0,0,.29-3.28,4.42,4.42,0,0,0,1.66.79,16.4,16.4,0,0,1-.47,3.6,1.94,1.94,0,0,1-1.37,1.23,9.29,9.29,0,0,1-2.56.25h-3a5,5,0,0,1-2.45-.51c-.75-.39-1.11-1-1.11-4v-5.54h-5.19v2.52h-1.62V413h1.62v10.62h5.19V409.32c-2.88.43-5.87.75-8.57,1a5.62,5.62,0,0,0-.5-1.48c2.88-.25,6.08-.61,9.07-1.08V403h1.69v4.46a41.09,41.09,0,0,0,6.66-1.65Z" transform="translate(-214.21 -297.79)"/><path d="M611.83,402.94v6.38h15.4V411h-5.72a38.91,38.91,0,0,1-9.29,15.26A34.84,34.84,0,0,0,627.45,434a12.09,12.09,0,0,0-1.3,1.65,35.34,35.34,0,0,1-15.33-8.1,42.34,42.34,0,0,1-15.05,8.14,9.07,9.07,0,0,0-1.11-1.69,39.25,39.25,0,0,0,14.83-7.74A40.58,40.58,0,0,1,600.38,411h-5.44v-1.69h15.12v-6.38Zm7.63,8.07H602.21a36.92,36.92,0,0,0,8.68,14A35.32,35.32,0,0,0,619.46,411Z" transform="translate(-214.21 -297.79)"/><path d="M647.86,403v7.88h14.76v1.76H649c3.14,6.66,8.71,12.78,14.69,15.59a6.53,6.53,0,0,0-1.3,1.47c-5.83-3-11.23-9-14.54-15.76v12.81h7.45v1.77h-7.45v7.12h-1.8v-7.12H638.5v-1.77h7.56V414c-3.38,6.69-8.85,12.71-14.47,15.8a6.69,6.69,0,0,0-1.26-1.4c5.72-2.88,11.38-9.11,14.58-15.7H631.45V410.9h14.61V403Z" transform="translate(-214.21 -297.79)"/><path d="M695.52,404.49v12.35h-5.43v4h6.8v1.58h-6.8v5H699V429h-32v-1.58h8.89v-5h-6.58v-1.58h6.58v-4h-5.32V404.49ZM680,431a49.69,49.69,0,0,1-11.44,4.68,12.39,12.39,0,0,0-1.15-1.33c3.74-1.05,8.45-2.77,10.87-4.36Zm-7.66-21.13H682V406h-9.72Zm0,5.47H682v-4h-9.72Zm16.05,5.51v-4H677.67v4Zm0,6.55v-5H677.67v5Zm-4.61-17.53h10V406h-10Zm0,5.47h10v-4h-10ZM687.57,430a88.13,88.13,0,0,1,11.23,4.39l-1.4,1.33a78.43,78.43,0,0,0-10.95-4.46Z" transform="translate(-214.21 -297.79)"/><path d="M705.57,414.17v-9.86H715v9.86h2.08v4.94h-1.47v-3.5H705v3.5h-1.48v-4.94Zm9.43,4.36v15.23c0,.9-.21,1.4-.9,1.65a13.73,13.73,0,0,1-3.85.25,4.48,4.48,0,0,0-.58-1.4c1.55,0,2.85,0,3.21,0s.54-.14.54-.5v-4.58h-6.34v6.48h-1.54V418.53Zm-1.51-9.9v-2.84H707v8.38h2.31v-5.54Zm-.07,14.44v-3.14h-6.34v3.14Zm-6.34,4.71h6.34V424.5h-6.34ZM713.49,410h-2.84v4.21h2.84ZM731,429.47c-.61,1.37-1.3,2.85-1.84,3.93h6.27v1.47H716.73V433.4h6a14.08,14.08,0,0,0-1.37-4l1.4-.43a14.9,14.9,0,0,1,1.48,4.14l-.83.29h5.15l-.72-.29a27.5,27.5,0,0,0,1.69-4.18Zm4.25-10.8v1.44h-18v-1.44ZM723,406.47V403h1.47v3.49h3.17V403h1.44v3.49h4.65v10.08H718.6V406.47ZM733,422.2v6.52H719.39V422.2Zm-12.88-11.41h3.09v-3h-3.09Zm0,4.36h3.09v-3h-3.09Zm.86,12.2h10.44v-3.78H720.94Zm3.56-16.56h3.17v-3H724.5Zm0,4.36h3.17v-3H724.5Zm4.47-4.36h3.24v-3H729Zm0,4.36h3.24v-3H729Z" transform="translate(-214.21 -297.79)"/><path d="M755.47,419.54a34.7,34.7,0,0,0,6.15-4.54H745.35v-1.62h17.93l.39-.11,1.19.87a35,35,0,0,1-8.89,6.69v1.66H770.4v1.66H756v9.1c0,1.23-.32,1.77-1.33,2.09a29.12,29.12,0,0,1-5.76.29,9.93,9.93,0,0,0-.76-1.69c2.56,0,4.65.07,5.26,0s.79-.21.79-.72v-9.1H739.7v-1.66h14.47v-2.95Zm-1.41-12.42v-4.25h1.8v4.25h14v7.95h-1.8v-6.26H741.9v6.26h-1.73v-7.95Z" transform="translate(-214.21 -297.79)"/><path d="M776.74,418.85a43.11,43.11,0,0,0,2.56-3.52,31.69,31.69,0,0,0-4.72-5.4l1-1.05,1.33,1.26a66,66,0,0,0,3.5-7.2l1.54.69a70.26,70.26,0,0,1-4.06,7.52,28.61,28.61,0,0,1,2.3,2.81c1.55-2.41,3-4.93,4-7l1.51.68a113.19,113.19,0,0,1-7.27,11.12l6-.29c-.54-1.22-1.12-2.48-1.73-3.56l1.33-.47a28.26,28.26,0,0,1,3.17,7.38l-1.44.61A16,16,0,0,0,785,420l-3.17.18v15.47h-1.58v-15.4l-5.9.36-.22-1.66Zm1.51,4.61a32.24,32.24,0,0,1-2.62,9.11,7.4,7.4,0,0,0-1.41-.69,26.51,26.51,0,0,0,2.49-8.67Zm6.52-.36a28.72,28.72,0,0,1,1.84,6.55l-1.48.43a27.92,27.92,0,0,0-1.69-6.62Zm21-13.43v7.89H790.31v.32l-.07,2.63h16.31v13.25c0,.86-.15,1.33-.72,1.62a8.31,8.31,0,0,1-2.92.28,6,6,0,0,0-.5-1.51c1.08,0,1.94,0,2.23,0s.36-.11.36-.43v-5.44h-3.67v7H800v-7H796.4v7H795v-7h-3.42v7.38h-1.44V421.84c-.32,4.39-1.37,9.36-4.25,13.1a4.69,4.69,0,0,0-1.29-1c3.63-4.75,4.06-11.19,4.06-16v-8.18Zm.9-4.42v1.62H787.22v-1.62ZM790.31,416H804.1v-4.75H790.31Zm4.72,6h-3.42v4.85H795Zm4.93,4.85V422H796.4v4.85Zm5,0V422h-3.67v4.85Z" transform="translate(-214.21 -297.79)"/><path d="M817.21,403v7.49h4.28v1.69h-4.28v7.49l4-1.37.25,1.65-4.24,1.52V433.4c0,1.15-.33,1.69-1.08,1.94a13,13,0,0,1-4.29.32,9.29,9.29,0,0,0-.54-1.62c1.73,0,3.17,0,3.6,0s.65-.14.65-.64V422l-4.86,1.66-.54-1.69,5.4-1.8v-8h-4.93v-1.69h4.93V403Zm10.69,20.88a38.6,38.6,0,0,0,.32-5.47h-6V416.8h6v-5.9H822v-1.66h6.26V403h1.66v15.15c0,7.17-.87,13.25-7.53,17.61a7.53,7.53,0,0,0-1.26-1.19,13.9,13.9,0,0,0,6.48-9.14L821,427.75l-.72-1.52C822.28,425.69,825.05,424.76,827.9,423.86ZM836,403v6.26h6.7v1.66H836v5.9h6.37v1.59H836v6.29h7.35v1.66H836v9.29h-1.69V403Z" transform="translate(-214.21 -297.79)"/><path d="M852.74,420.11a1.86,1.86,0,0,1,1.84-2,2,2,0,1,1-1.84,2Z" transform="translate(-214.21 -297.79)"/><path d="M883.34,403v5.94h14.18v1.73H883.34V417h9.25L893,417l1.16.72a25.88,25.88,0,0,1-10,11.66,40.37,40.37,0,0,0,14.76,4.86,7.38,7.38,0,0,0-1.12,1.62,40.37,40.37,0,0,1-15.3-5.47,49.83,49.83,0,0,1-15.33,5.32,7,7,0,0,0-1-1.62,48.69,48.69,0,0,0,14.76-4.75,26.22,26.22,0,0,1-8.32-10l1.55-.61H869V417h12.56v-6.37H867.43v-1.73h14.14V403Zm-.79,25.34a23,23,0,0,0,9-9.61H874.16A23.4,23.4,0,0,0,882.55,428.32Z" transform="translate(-214.21 -297.79)"/><path d="M908.72,403v7.49H913v1.69h-4.28v7.49l4-1.37.26,1.65-4.25,1.52V433.4c0,1.15-.33,1.69-1.08,1.94a13,13,0,0,1-4.28.32,11.35,11.35,0,0,0-.54-1.62c1.72,0,3.16,0,3.6,0s.64-.14.64-.64V422l-4.86,1.66-.54-1.69,5.4-1.8v-8h-4.93v-1.69h4.93V403Zm10,14.72.29-3.35h-4.47v-1.29l-.32.43c-.36-.25-1-.68-1.33-.9a21.84,21.84,0,0,0,3.53-7.81l1.47.36A86.22,86.22,0,0,0,931,403.3l1.22,1.3a85,85,0,0,1-14.57,1.94,25.64,25.64,0,0,1-3,6.27h18.58a25.64,25.64,0,0,0-4.07-6.52l1.3-.57a26.55,26.55,0,0,1,4.28,6.62l-1.3.57v1.44H920.67l-.32,3.35h14.39v1.59H920.13c-.14,1-.32,2-.54,3.06h10.83l.33-.11,1,.5a17.74,17.74,0,0,1-5.22,8.14,25.57,25.57,0,0,0,8.57,3.34,6.3,6.3,0,0,0-1.19,1.59,25.72,25.72,0,0,1-8.78-3.82,25,25,0,0,1-8.32,3.78,5.62,5.62,0,0,0-1-1.37,24.27,24.27,0,0,0,8-3.38,20.68,20.68,0,0,1-5-5.9c-1.3,4.28-3.56,8.24-7.67,10.76a4.87,4.87,0,0,0-1.26-1.22c5.65-3.28,7.67-9.51,8.53-15.37h-5.4V417.7Zm6.55,12.24a15.29,15.29,0,0,0,4.39-6.15H920A17.46,17.46,0,0,0,925.24,429.94Zm-1.87-23.11a17.26,17.26,0,0,1,1.55,5.18l-1.48.4a19.58,19.58,0,0,0-1.44-5.29Z" transform="translate(-214.21 -297.79)"/><path d="M969.88,405.57v1.76H958.22a43.93,43.93,0,0,1-2.85,4.36v23.94h-1.83V414a47.83,47.83,0,0,1-14,11.45,10.84,10.84,0,0,0-1.15-1.44A44.32,44.32,0,0,0,956,407.33H939.1v-1.76ZM958.11,414a79.07,79.07,0,0,1,12.63,9.39l-1.33,1.37a76.24,76.24,0,0,0-12.53-9.64Z" transform="translate(-214.21 -297.79)"/><path d="M1005.16,404.92v28.22c0,1.34-.4,1.95-1.33,2.24a23.65,23.65,0,0,1-5.8.32,7.86,7.86,0,0,0-.68-1.69c2.48.11,4.57.07,5.18,0s.9-.25.9-.9V406.62H977.66v29.15h-1.73V404.92Zm-5.29,6.16v1.58H981.4v-1.58Zm-2.16,6v11.09H985v2.74h-1.66V417.05ZM985,426.56h11.08v-7.92H985Z" transform="translate(-214.21 -297.79)"/><path d="M1027,419.54a34.34,34.34,0,0,0,6.15-4.54h-16.27v-1.62h17.93l.39-.11,1.19.87a35,35,0,0,1-8.89,6.69v1.66h14.44v1.66h-14.44v9.1c0,1.23-.32,1.77-1.33,2.09a29.05,29.05,0,0,1-5.76.29,9.2,9.2,0,0,0-.76-1.69c2.56,0,4.65.07,5.26,0s.79-.21.79-.72v-9.1h-14.47v-1.66h14.47v-2.95Zm-1.41-12.42v-4.25h1.8v4.25h14v7.95h-1.8v-6.26h-26.17v6.26h-1.73v-7.95Z" transform="translate(-214.21 -297.79)"/><path d="M1051.24,417.16V406.94h-4.5v-1.69H1065v1.69h-3.6v10.22h4.14v1.66h-4.14v16.84h-1.73V418.82h-6.8c-.11,6.12-1,12.13-5.36,17a4.82,4.82,0,0,0-1.34-1.11c4.07-4.61,4.9-10.23,5-15.91h-5v-1.66Zm1.69-10.22v10.22h6.77V406.94ZM1079.25,424a32.58,32.58,0,0,1-14.15,11.66,9.6,9.6,0,0,0-1.29-1.36c5.65-2.27,11-6.41,13.82-10.95Zm-2.16-19.72a37.68,37.68,0,0,1-10.41,8.31,10.06,10.06,0,0,0-1.29-1.22,32.65,32.65,0,0,0,10-7.78Zm1.19,9.89a39.69,39.69,0,0,1-11.31,9,11.08,11.08,0,0,0-1.29-1.26,36.06,36.06,0,0,0,11-8.42Z" transform="translate(-214.21 -297.79)"/><path d="M1110.42,405.21c.08,13.1.18,28.69,2.6,28.69.5,0,.72-2.56.79-5.87a4.66,4.66,0,0,0,1.19,1.05c-.18,4.86-.54,6.55-2.16,6.58-3.89,0-3.86-12.74-4-28.79h-20.66v9.39c0,5.87-.61,13.9-4.71,19.44a8.31,8.31,0,0,0-1.41-1c4-5.36,4.43-12.81,4.43-18.43V405.21Zm-6.62,21a24.5,24.5,0,0,1,4.86,7.89l-1.44.61a17.67,17.67,0,0,0-1.37-3l-17.53,1.19-.14-1.66,9.18-.54V424.9h-6.63v-9.5h6.63v-3.85c-2.41.28-4.93.5-7.24.64a5,5,0,0,0-.5-1.36c5.4-.4,12.06-1.16,15.48-2.16l1.4,1.26a55.33,55.33,0,0,1-7.52,1.4v4.07h6.76v9.5H1099v5.72l6-.39a31.09,31.09,0,0,0-2.56-3.49Zm-11.55-2.84h5.11v-6.48h-5.11Zm6.73,0h5.22v-6.48H1099Z" transform="translate(-214.21 -297.79)"/><path d="M1126,402.94v7.92h5.07v1.66H1126v2.12c1,1.12,4,4.79,4.75,5.76l-1.19,1.41a57.33,57.33,0,0,0-3.56-5v18.82h-1.66V416.48c-1.44,4.68-3.53,9.43-5.58,12.13a5.84,5.84,0,0,0-1.08-1.44c2.52-3.17,5.15-9.29,6.38-14.65h-5.51v-1.66h5.79v-7.92Zm13.39.4a30.67,30.67,0,0,1-1.66,3.53h8.89l.36-.08,1.08.54a25.53,25.53,0,0,1-6,9.4,26.46,26.46,0,0,0,9.5,5.33,11.62,11.62,0,0,0-1.12,1.47,27.51,27.51,0,0,1-9.54-5.68,33.48,33.48,0,0,1-7,4.78h14.25v13h-1.66v-1.65h-11.51v1.8h-1.66V422.92a35.68,35.68,0,0,1-3.38,1.41,6.64,6.64,0,0,0-1-1.44,30.41,30.41,0,0,0,10.84-6.16,26.46,26.46,0,0,1-4.43-6,27.27,27.27,0,0,1-4.07,4.47,13,13,0,0,0-1.44-1.19,26.68,26.68,0,0,0,8-11.12Zm7.05,29v-8.1h-11.51v8.1Zm-10.15-23a22.39,22.39,0,0,0,4.54,6.29,22.53,22.53,0,0,0,5-7.16h-9Z" transform="translate(-214.21 -297.79)"/></svg>